<?xml version="1.0" encoding="utf-8"?>
<!-- Generator: Adobe Illustrator 21.1.0, SVG Export Plug-In . SVG Version: 6.00 Build 0)  -->
<svg version="1.1" id="Layer_1" xmlns="http://www.w3.org/2000/svg" xmlns:xlink="http://www.w3.org/1999/xlink" x="0px" y="0px"
	 viewBox="0 0 520 360" style="enable-background:new 0 0 520 360;" xml:space="preserve">
<style type="text/css">
	.st0{opacity:0.25;fill:url(#SVGID_1_);}
	.st1{fill-rule:evenodd;clip-rule:evenodd;fill:#FFFFFF;}
	.st2{opacity:0.25;fill:url(#SVGID_2_);}
	.st3{fill-rule:evenodd;clip-rule:evenodd;fill:#4DC6E1;}
	.st4{opacity:0.25;fill:url(#SVGID_3_);}
	.st5{fill:none;}
	.st6{opacity:0.25;fill:url(#SVGID_4_);}
	.st7{opacity:0.5;fill:url(#SVGID_5_);}
	.st8{fill:url(#SVGID_6_);}
	.inv_icon{opacity:0; animation:fadeIn ease-in 1; animation-fill-mode:forwards;animation-duration:1s;} }
	.inv_icon1{animation-delay: 0.3s;}
	.inv_icon2{animation-delay: 0.6s;}
	.inv_icon3{animation-delay: 0.9s;}
	.inv_icon4{animation-delay: 1.2s;}
    .inv_icon5{animation-delay: 1.5s;}
    .inv_icon6{animation-delay: 1.8s;}

	@keyframes fadeIn { from { opacity:0; transform: translateY(30px) } to { opacity:1; transform: translateY(0px) } } 
</style>
<g id="ic_x5F_6" class="inv_icon inv_icon6">
	
<radialGradient id="SVGID_1_" cx="255.9462" cy="289.4204" r="24.1997" gradientTransform="matrix(1.6866 0 0 0.244 -134.7223 253.381)" gradientUnits="userSpaceOnUse">
		<stop  offset="7.035176e-02" style="stop-color:#000000"/>
		<stop  offset="1" style="stop-color:#000000;stop-opacity:0"/>
	</radialGradient>
	<ellipse class="st0" cx="296.9" cy="324" rx="56.5" ry="8"/>
	<path class="st1" d="M296.9,212.5c-31,0-56.1,25.1-56.1,56c0,20.3,10.9,38.1,27.1,47.9l0.7,9.3l8.7-4.8c6.1,2.3,12.8,3.6,19.7,3.6
		c31,0,56.1-25.1,56.1-56C353.1,237.6,327.9,212.5,296.9,212.5z"/>
	<g>
		<path d="M320.7,282.3c-1.1-0.1-3.4,1.2-4,1.5c-2.3,1.2-5.4,3-7.4,4.4c-0.1,0.1-0.4,0.2-0.5,0.3c-0.9,0.6-1.9,1-3,1.2
			c-5.9,1.3-14.6,1.4-14.6,1.4h-0.5c-0.4,0-0.7-0.2-0.8-0.6c-0.1-0.4,0.2-0.8,0.7-0.9l12.8-1.3c1.4-0.2,2.6-1.5,2.4-3.1
			c-0.2-1.5-1.5-2.6-2.9-2.5l-11.4-0.1c-0.8,0-2-0.2-2.7-0.4c-7.4-2.2-11.5-0.1-13.7,0.9c-0.5-0.9-1.4-1.4-2.4-1.3l-1.9,0.2
			c-1.7,0.1-2.9,1.5-2.7,3.1l0.8,11.3c0.1,1.7,1.5,2.9,3.2,2.8l1.8-0.1c1-0.1,1.9-0.7,2.3-1.7l21.6,1c2.4,0.2,4.6-0.1,6.8-1.2
			l0.6-0.3l16.4-9.9c0.8-0.5,1.4-1.4,1.4-2.3C322.9,283.7,322.3,282.4,320.7,282.3z"/>
		<path d="M308.3,284.1c0.1,0.4,0.2,0.8,0.2,1.2c0,0.3,0,0.6,0,0.9c0.2-0.1,0.4-0.2,0.5-0.3c1.7-1.2,5.1-3.1,7-4.1
			c0.6-0.3,1.2-0.6,1.8-0.9c-0.8-0.6-1.7-0.6-2.7-0.2C313.4,281.4,310,283.1,308.3,284.1L308.3,284.1z"/>
		<path d="M307.3,282.4c0.1-0.1,0.2-0.1,0.2-0.2l0.8-0.5c1.2-0.7,3.8-1.6,5.1-2.2c-0.8-0.6-1.7-0.6-2.6-0.2
			c-1.1,0.4-3.7,1.3-4.8,1.9C306.5,281.6,306.9,282,307.3,282.4z"/>
		<path d="M309,242.8h4.7c0.3,0,0.6,0.3,0.6,0.6v7.1l5.3,4.2c0.4,0.3,0.5,0.7,0.3,1.2c-0.2,0.4-0.5,0.7-1,0.7h-3.1v14.8
			c0,1.3-1.1,2.3-2.4,2.3h-5.1v-13.7h-9.5l3.5,1.3v14.9l-6.3-2.4c-0.2-0.1-0.4-0.1-0.6-0.1l-4.7,0c-1.3,0-2.4-1.1-2.4-2.3v-14.8
			h-3.1c-0.5,0-0.9-0.3-1-0.7c-0.2-0.4,0-0.9,0.3-1.2l7.6-6l7.9-6.3c1.2-0.9,2.9-0.9,4.1,0l4.3,3.4v-2.4
			C308.4,243.1,308.6,242.8,309,242.8z"/>
	</g>
</g>
<g id="ic_x5F_5" class="inv_icon inv_icon5">
	
		<radialGradient id="SVGID_2_" cx="110.2805" cy="253.5455" r="24.1997" gradientTransform="matrix(1.2985 0 0 0.244 -91.8747 221.1345)" gradientUnits="userSpaceOnUse">
		<stop  offset="7.035176e-02" style="stop-color:#000000"/>
		<stop  offset="1" style="stop-color:#000000;stop-opacity:0"/>
	</radialGradient>
	<ellipse class="st2" cx="51.3" cy="283" rx="43.5" ry="8"/>
	<path class="st3" d="M51.3,196.3c-23.6,0-42.7,19.1-42.7,42.7c0,15.5,8.3,29.1,20.6,36.6l0.5,7.1l6.6-3.6c4.7,1.8,9.7,2.7,15,2.7
		c23.6,0,42.7-19.1,42.7-42.7C94,215.4,74.9,196.3,51.3,196.3z"/>
	<g>
		<path d="M36.7,272.4l-0.8-7.7c0-0.7,0.9-0.1,2.1-0.1l0,0c1.1,0,2.1-0.6,2.1,0.1l0,0l-0.7,7.5C39.4,273.9,36.7,273.2,36.7,272.4z"
			/>
		<path d="M33.4,247.5c-5.7-2.5-5.2-6.5-5.2-6.5c-0.7,1.4,0.8,13.6,6.8,13.6C37.5,254.6,39.8,250.3,33.4,247.5z"/>
		<path d="M33.4,238.8c-5.7-2.5-5.2-6.5-5.2-6.5c-0.7,1.4,0.8,13.6,6.8,13.6C37.5,246,39.8,241.7,33.4,238.8z"/>
		<path d="M33.4,230.4c-5.7-2.5-5.2-6.5-5.2-6.5c-0.7,1.4,0.8,13.6,6.8,13.6C37.5,237.6,39.8,233.3,33.4,230.4z"/>
		<path d="M41.3,254.6c5.9,0,7.5-12.2,6.8-13.6c0,0,0.5,4-5.2,6.5C36.4,250.3,38.6,254.6,41.3,254.6z"/>
		<path d="M33.4,256.3c-5.7-2.5-5.2-6.5-5.2-6.5c-0.7,1.4,0.8,13.6,6.8,13.6C37.5,263.5,39.8,259.2,33.4,256.3z"/>
		<path d="M41.3,263.5c5.9,0,7.5-12.2,6.8-13.6c0,0,0.5,4-5.2,6.5C36.4,259.2,38.6,263.5,41.3,263.5z"/>
		<path d="M41.3,246c5.9,0,7.5-12.2,6.8-13.6c0,0,0.5,4-5.2,6.5C36.4,241.7,38.6,246,41.3,246z"/>
		<path d="M41.3,237.6c5.9,0,7.5-12.2,6.8-13.6c0,0,0.5,4-5.2,6.5C36.4,233.3,38.6,237.6,41.3,237.6z"/>
		<path d="M38.5,231.1c6.3,0-0.3-13.2-0.3-13.2C37.3,219.2,32.2,231.1,38.5,231.1z"/>
		<path d="M55.5,273.5l3.8-6.5l0,0c0.3-0.6-0.8-0.5-1.8-0.9l0,0c-1.1-0.5-1.6-1.4-1.9-0.8l-2.6,7.3C52.6,273.2,54.8,275,55.5,273.5z
			"/>
		<path d="M60.7,248.5c-4.1-4.6-2-8.1-2-8.1c-1.3,1-5.1,12.7,0.3,15.2C61.4,256.7,65.3,253.7,60.7,248.5z"/>
		<path d="M64.4,240.6c-4.1-4.6-2-8-2-8c-1.3,1-5.1,12.7,0.3,15.2C65.1,248.9,69,245.9,64.4,240.6z"/>
		<path d="M68,233c-4.1-4.6-2-8.1-2-8.1c-1.3,1-5.1,12.7,0.3,15.2C68.7,241.2,72.6,238.3,68,233z"/>
		<path d="M64.8,258.2c5.4,2.4,12-8,12-9.6c0,0-1.3,3.8-7.5,3.7C62.2,252.3,62.4,257.1,64.8,258.2z"/>
		<path d="M56.9,256.5c-4.1-4.6-2-8.1-2-8.1c-1.3,1-5.1,12.7,0.3,15.2C57.6,264.7,61.5,261.7,56.9,256.5z"/>
		<path d="M61,266.3c5.4,2.5,12-8,12-9.6c0,0-1.3,3.8-7.5,3.7C58.4,260.3,58.6,265.2,61,266.3z"/>
		<path d="M68.5,250.4c5.4,2.5,12-8,12-9.6c0,0-1.3,3.8-7.5,3.7C65.9,244.5,66.1,249.3,68.5,250.4z"/>
		<path d="M72.1,242.8c5.4,2.5,12-8,12-9.6c0,0-1.3,3.8-7.5,3.7C69.5,236.9,69.7,241.7,72.1,242.8z"/>
		<path d="M72.4,235.7c5.7,2.6,5.3-12.1,5.3-12.1C76.5,224.5,66.7,233.1,72.4,235.7z"/>
	</g>
</g>
<g id="ic_x5F_4" class="inv_icon inv_icon4">
	
		<radialGradient id="SVGID_3_" cx="352.4583" cy="218.5455" r="24.1997" gradientTransform="matrix(1.4776 0 0 0.244 -81.2965 189.6746)" gradientUnits="userSpaceOnUse">
		<stop  offset="7.035176e-02" style="stop-color:#000000"/>
		<stop  offset="1" style="stop-color:#000000;stop-opacity:0"/>
	</radialGradient>
	<ellipse class="st4" cx="439.5" cy="243" rx="49.5" ry="8"/>
	<path class="st3" d="M440,155.2c-23.6,0-42.7,19.1-42.7,42.7c0,15.5,8.3,29.1,20.6,36.6l0.5,7.1l6.6-3.6c4.7,1.8,9.7,2.7,15,2.7
		c23.6,0,42.7-19.1,42.7-42.7C482.7,174.3,463.6,155.2,440,155.2z"/>
	<path class="st5" d="M417.7,198.5l-4.9,4.9c-0.3,0.3-0.7,0.5-1,0.5s-0.8-0.2-1-0.5l-4.9-4.9c-0.5-0.5-0.5-1.5,0-2.1
		c0.5-0.5,1.5-0.5,2.1,0l2.4,2.4c0-16.2,13.2-29.3,29.3-29.3c0.8,0,1.5,0.6,1.5,1.5c0,0.2,0,0.3-0.1,0.4c-0.2,0.6-0.7,1.1-1.4,1.1
		l0,0c-14.5,0-26.4,11.9-26.4,26.5l0,0l2.4-2.5c0.5-0.5,1.5-0.5,2.1,0C418.3,197.1,418.3,198,417.7,198.5z M445.1,173
		c0.1,0,0.2,0,0.3,0c0.7,0,1.3-0.5,1.4-1.2c0.2-0.8-0.3-1.5-1.1-1.7c-0.8-0.2-1.5,0.3-1.7,1.2C443.8,172.1,444.2,172.9,445.1,173z
		 M455,177.4c0.2,0.2,0.5,0.3,0.8,0.3c0.5,0,0.9-0.2,1.1-0.6c0.5-0.7,0.3-1.5-0.3-2l0,0c-0.7-0.5-1.5-0.3-2,0.3
		C454.2,176.1,454.3,177,455,177.4z M460.1,181.6c0.4,0,0.7-0.2,1-0.4c0.6-0.5,0.6-1.5,0.1-2.1c-0.5-0.6-1.5-0.6-2.1-0.1
		c-0.6,0.5-0.6,1.5-0.1,2.1C459.4,181.4,459.7,181.6,460.1,181.6z M464.6,190.5L464.6,190.5c0.2,0.6,0.8,1,1.4,1
		c0.2,0,0.3,0,0.5-0.1c0.8-0.2,1.1-1.1,0.9-1.8c-0.2-0.8-1.1-1.2-1.8-0.9C464.8,188.9,464.3,189.8,464.6,190.5z M414.8,208.1
		c-0.3-0.8-1.1-1.2-1.8-0.8c-0.8,0.3-1.1,1.1-0.8,1.8c0.2,0.6,0.8,0.9,1.4,0.9c0.2,0,0.3,0,0.5-0.1
		C414.7,209.7,415.1,208.8,414.8,208.1z M463.6,186.3c0.2,0,0.5-0.1,0.8-0.2c0.7-0.4,0.9-1.3,0.5-2c-0.4-0.7-1.3-0.9-2-0.5
		c-0.7,0.4-0.9,1.3-0.5,2C462.6,185.9,463.1,186.3,463.6,186.3z M450.3,174.7c0.2,0.1,0.4,0.2,0.6,0.2c0.5,0,1.1-0.3,1.3-0.8
		c0.3-0.8,0-1.6-0.8-1.9c-0.8-0.3-1.6,0-1.9,0.8C449.2,173.5,449.5,174.4,450.3,174.7z M429.6,223.5c-0.8-0.3-1.6,0.1-1.9,0.8
		c-0.3,0.8,0.1,1.6,0.8,1.9c0.2,0.1,0.4,0.1,0.5,0.1c0.5,0,1.1-0.3,1.3-0.9C430.7,224.7,430.4,223.8,429.6,223.5z M434.9,225
		c-0.8-0.2-1.5,0.4-1.7,1.2c-0.2,0.8,0.4,1.5,1.1,1.7c0.1,0,0.2,0,0.2,0c0.7,0,1.3-0.5,1.5-1.2C436.2,226,435.6,225.2,434.9,225z
		 M418.5,217.4c-0.6,0.5-0.6,1.5-0.1,2.1c0.3,0.3,0.7,0.5,1.1,0.5c0.4,0,0.7-0.2,1-0.4c0.6-0.5,0.6-1.5,0-2.1
		C420,216.8,419.1,216.7,418.5,217.4z M415.2,212.6c-0.7,0.5-0.9,1.3-0.5,2c0.3,0.5,0.8,0.7,1.2,0.7c0.2,0,0.5-0.1,0.8-0.2
		c0.7-0.5,0.8-1.3,0.5-2C416.8,212.4,415.9,212.1,415.2,212.6z M424.8,220.9c-0.7-0.5-1.5-0.3-2,0.4c-0.5,0.7-0.3,1.5,0.4,2
		c0.2,0.2,0.5,0.2,0.8,0.2c0.5,0,0.9-0.2,1.2-0.6C425.6,222.3,425.4,221.4,424.8,220.9z M473.1,199.5l-4.9-4.9
		c-0.5-0.5-1.5-0.5-2.1,0l-4.9,4.9c-0.5,0.5-0.5,1.5,0,2.1c0.3,0.3,0.7,0.5,1,0.5s0.8-0.2,1-0.5l2.4-2.5l0,0
		c0,14.6-11.9,26.5-26.4,26.5c-0.8,0-1.5,0.6-1.5,1.5c0,0.8,0.6,1.5,1.5,1.5c16.1,0,29.3-13.1,29.3-29.3l2.4,2.4
		c0.3,0.3,0.7,0.5,1,0.5s0.8-0.2,1-0.5C473.7,200.9,473.7,200,473.1,199.5z M442.7,197.9c-0.9-0.5-1.8-0.8-2.8-1.3
		c-0.5-0.2-1.1-0.5-1.5-0.8c-0.9-0.8-0.8-1.9,0.3-2.4c0.3-0.2,0.6-0.2,0.9-0.2c1.2-0.1,2.4,0.2,3.5,0.7c0.5,0.3,0.8,0.2,0.9-0.4
		c0.2-0.6,0.4-1.2,0.5-1.8c0.2-0.4,0-0.7-0.5-0.8c-0.7-0.3-1.5-0.5-2.2-0.7c-1-0.2-1-0.2-1-1.2c0-1.5,0-1.5-1.5-1.5
		c-0.2,0-0.4,0-0.6,0c-0.7,0-0.8,0.2-0.8,0.8c0,0.3,0,0.6,0,0.9c0,0.9,0,0.9-0.8,1.2c-2.1,0.8-3.4,2.2-3.5,4.5
		c-0.2,2,0.9,3.4,2.6,4.4c1,0.6,2.1,1,3.2,1.5c0.5,0.2,0.8,0.4,1.1,0.7c1.1,0.8,0.8,2.3-0.4,2.8c-0.7,0.3-1.4,0.4-2.1,0.3
		c-1.1-0.2-2.1-0.5-3.1-0.9c-0.6-0.3-0.8-0.2-0.9,0.4c-0.2,0.5-0.3,1.1-0.5,1.7c-0.2,0.8-0.2,0.9,0.6,1.2c0.9,0.5,1.8,0.7,2.8,0.8
		c0.8,0.2,0.8,0.2,0.8,0.9c0,0.4,0,0.7,0,1.1c0,0.5,0.2,0.7,0.7,0.8c0.5,0,1.1,0,1.6,0c0.5,0,0.7-0.2,0.7-0.7c0-0.5,0-1,0-1.5
		c0-0.5,0.2-0.8,0.7-0.9c1.1-0.3,2.1-0.9,2.8-1.8C446.4,203.1,445.5,199.5,442.7,197.9z"/>
	<path d="M417.7,198.5l-4.9,4.9c-0.3,0.3-0.7,0.5-1,0.5s-0.8-0.2-1-0.5l-4.9-4.9c-0.5-0.5-0.5-1.5,0-2.1c0.5-0.5,1.5-0.5,2.1,0
		l2.4,2.4c0-16.2,13.2-29.3,29.3-29.3c0.8,0,1.5,0.6,1.5,1.5c0,0.2,0,0.3-0.1,0.4c-0.2,0.6-0.7,1.1-1.4,1.1l0,0
		c-14.5,0-26.4,11.9-26.4,26.5l0,0l2.4-2.5c0.5-0.5,1.5-0.5,2.1,0C418.3,197.1,418.3,198,417.7,198.5z M445.1,173c0.1,0,0.2,0,0.3,0
		c0.7,0,1.3-0.5,1.4-1.2c0.2-0.8-0.3-1.5-1.1-1.7c-0.8-0.2-1.5,0.3-1.7,1.2C443.8,172.1,444.2,172.9,445.1,173z M455,177.4
		c0.2,0.2,0.5,0.3,0.8,0.3c0.5,0,0.9-0.2,1.1-0.6c0.5-0.7,0.3-1.5-0.3-2l0,0c-0.7-0.5-1.5-0.3-2,0.3
		C454.2,176.1,454.3,177,455,177.4z M460.1,181.6c0.4,0,0.7-0.2,1-0.4c0.6-0.5,0.6-1.5,0.1-2.1c-0.5-0.6-1.5-0.6-2.1-0.1
		c-0.6,0.5-0.6,1.5-0.1,2.1C459.4,181.4,459.7,181.6,460.1,181.6z M464.6,190.5L464.6,190.5c0.2,0.6,0.8,1,1.4,1
		c0.2,0,0.3,0,0.5-0.1c0.8-0.2,1.1-1.1,0.9-1.8c-0.2-0.8-1.1-1.2-1.8-0.9C464.8,188.9,464.3,189.8,464.6,190.5z M414.8,208.1
		c-0.3-0.8-1.1-1.2-1.8-0.8c-0.8,0.3-1.1,1.1-0.8,1.8c0.2,0.6,0.8,0.9,1.4,0.9c0.2,0,0.3,0,0.5-0.1
		C414.7,209.7,415.1,208.8,414.8,208.1z M463.6,186.3c0.2,0,0.5-0.1,0.8-0.2c0.7-0.4,0.9-1.3,0.5-2c-0.4-0.7-1.3-0.9-2-0.5
		c-0.7,0.4-0.9,1.3-0.5,2C462.6,185.9,463.1,186.3,463.6,186.3z M450.3,174.7c0.2,0.1,0.4,0.2,0.6,0.2c0.5,0,1.1-0.3,1.3-0.8
		c0.3-0.8,0-1.6-0.8-1.9c-0.8-0.3-1.6,0-1.9,0.8C449.2,173.5,449.5,174.4,450.3,174.7z M429.6,223.5c-0.8-0.3-1.6,0.1-1.9,0.8
		c-0.3,0.8,0.1,1.6,0.8,1.9c0.2,0.1,0.4,0.1,0.5,0.1c0.5,0,1.1-0.3,1.3-0.9C430.7,224.7,430.4,223.8,429.6,223.5z M434.9,225
		c-0.8-0.2-1.5,0.4-1.7,1.2c-0.2,0.8,0.4,1.5,1.1,1.7c0.1,0,0.2,0,0.2,0c0.7,0,1.3-0.5,1.5-1.2C436.2,226,435.6,225.2,434.9,225z
		 M418.5,217.4c-0.6,0.5-0.6,1.5-0.1,2.1c0.3,0.3,0.7,0.5,1.1,0.5c0.4,0,0.7-0.2,1-0.4c0.6-0.5,0.6-1.5,0-2.1
		C420,216.8,419.1,216.7,418.5,217.4z M415.2,212.6c-0.7,0.5-0.9,1.3-0.5,2c0.3,0.5,0.8,0.7,1.2,0.7c0.2,0,0.5-0.1,0.8-0.2
		c0.7-0.5,0.8-1.3,0.5-2C416.8,212.4,415.9,212.1,415.2,212.6z M424.8,220.9c-0.7-0.5-1.5-0.3-2,0.4c-0.5,0.7-0.3,1.5,0.4,2
		c0.2,0.2,0.5,0.2,0.8,0.2c0.5,0,0.9-0.2,1.2-0.6C425.6,222.3,425.4,221.4,424.8,220.9z M473.1,199.5l-4.9-4.9
		c-0.5-0.5-1.5-0.5-2.1,0l-4.9,4.9c-0.5,0.5-0.5,1.5,0,2.1c0.3,0.3,0.7,0.5,1,0.5s0.8-0.2,1-0.5l2.4-2.5l0,0
		c0,14.6-11.9,26.5-26.4,26.5c-0.8,0-1.5,0.6-1.5,1.5c0,0.8,0.6,1.5,1.5,1.5c16.1,0,29.3-13.1,29.3-29.3l2.4,2.4
		c0.3,0.3,0.7,0.5,1,0.5s0.8-0.2,1-0.5C473.7,200.9,473.7,200,473.1,199.5z M442.7,197.9c-0.9-0.5-1.8-0.8-2.8-1.3
		c-0.5-0.2-1.1-0.5-1.5-0.8c-0.9-0.8-0.8-1.9,0.3-2.4c0.3-0.2,0.6-0.2,0.9-0.2c1.2-0.1,2.4,0.2,3.5,0.7c0.5,0.3,0.8,0.2,0.9-0.4
		c0.2-0.6,0.4-1.2,0.5-1.8c0.2-0.4,0-0.7-0.5-0.8c-0.7-0.3-1.5-0.5-2.2-0.7c-1-0.2-1-0.2-1-1.2c0-1.5,0-1.5-1.5-1.5
		c-0.2,0-0.4,0-0.6,0c-0.7,0-0.8,0.2-0.8,0.8c0,0.3,0,0.6,0,0.9c0,0.9,0,0.9-0.8,1.2c-2.1,0.8-3.4,2.2-3.5,4.5
		c-0.2,2,0.9,3.4,2.6,4.4c1,0.6,2.1,1,3.2,1.5c0.5,0.2,0.8,0.4,1.1,0.7c1.1,0.8,0.8,2.3-0.4,2.8c-0.7,0.3-1.4,0.4-2.1,0.3
		c-1.1-0.2-2.1-0.5-3.1-0.9c-0.6-0.3-0.8-0.2-0.9,0.4c-0.2,0.5-0.3,1.1-0.5,1.7c-0.2,0.8-0.2,0.9,0.6,1.2c0.9,0.5,1.8,0.7,2.8,0.8
		c0.8,0.2,0.8,0.2,0.8,0.9c0,0.4,0,0.7,0,1.1c0,0.5,0.2,0.7,0.7,0.8c0.5,0,1.1,0,1.6,0c0.5,0,0.7-0.2,0.7-0.7c0-0.5,0-1,0-1.5
		c0-0.5,0.2-0.8,0.7-0.9c1.1-0.3,2.1-0.9,2.8-1.8C446.4,203.1,445.5,199.5,442.7,197.9z"/>
</g>
<g id="ic_x5F_3"  class="inv_icon inv_icon3">
	
		<radialGradient id="SVGID_4_" cx="161.6098" cy="225.5455" r="24.1997" gradientTransform="matrix(1.4776 0 0 0.244 -81.2965 195.9666)" gradientUnits="userSpaceOnUse">
		<stop  offset="7.035176e-02" style="stop-color:#000000"/>
		<stop  offset="1" style="stop-color:#000000;stop-opacity:0"/>
	</radialGradient>
	<ellipse class="st6" cx="157.5" cy="251" rx="49.5" ry="8"/>
	<path class="st1" d="M214.3,193.8c0-30.9-25.1-56-56.1-56s-56.1,25.1-56.1,56c0,30.9,25.1,56,56.1,56c6.9,0,13.6-1.3,19.7-3.6
		l8.6,4.8l0.7-9.3C203.5,232,214.3,214.2,214.3,193.8z"/>
	<path d="M138.1,189.7l2.2-15.1h15.1l4.3,15.1h10.8v-4.3c0-3.6,2.9-6.5,6.5-6.5v4.3c-1.2,0-2.2,1-2.2,2.2v4.3h4.3v15.1H177
		c0,4.8-3.9,8.6-8.6,8.6c-4.8,0-8.6-3.9-8.6-8.6h-2.4c-1,4.9-5.4,8.6-10.6,8.6c-5.2,0-9.6-3.7-10.6-8.6h-0.2v-15.1H138.1z
		 M168.3,209.1c2.4,0,4.3-1.9,4.3-4.3c0-2.4-1.9-4.3-4.3-4.3s-4.3,1.9-4.3,4.3C164,207.2,165.9,209.1,168.3,209.1z M155.8,191.8
		l-3.7-13H144l-1.9,13H155.8z M146.7,209.1c3.6,0,6.5-2.9,6.5-6.5c0-3.6-2.9-6.5-6.5-6.5c-3.6,0-6.5,2.9-6.5,6.5
		C140.2,206.2,143.1,209.1,146.7,209.1z"/>
</g>
<g id="ic_x5F_2" class="inv_icon inv_icon2">
	
		<radialGradient id="SVGID_5_" cx="241.518" cy="181" r="24.1997" gradientTransform="matrix(1.6269 0 0 0.3355 -105.4174 120.2741)" gradientUnits="userSpaceOnUse">
		<stop  offset="7.035176e-02" style="stop-color:#000000"/>
		<stop  offset="1" style="stop-color:#000000;stop-opacity:0"/>
	</radialGradient>
	<ellipse class="st7" cx="287.5" cy="181" rx="54.5" ry="11"/>
	<path class="st1" d="M286.1,68c-31,0-56.1,25.1-56.1,56c0,20.3,10.8,38.1,27.1,47.9l0.7,9.3l8.6-4.8c6.1,2.3,12.8,3.6,19.7,3.6
		c31,0,56.1-25.1,56.1-56C342.2,93.1,317.1,68,286.1,68z"/>
	<g>
		<rect x="271.4" y="127.1" class="st5" width="3.6" height="2.9"/>
		<rect x="276.4" y="131.5" class="st5" width="3.6" height="2.9"/>
		<rect x="293.3" y="131.5" class="st5" width="3.6" height="2.9"/>
		<rect x="271.4" y="131.5" class="st5" width="3.6" height="2.9"/>
		<rect x="276.4" y="127.1" class="st5" width="3.6" height="2.9"/>
		<rect x="298.4" y="127.1" class="st5" width="3.6" height="2.9"/>
		<rect x="293.3" y="127.1" class="st5" width="3.6" height="2.9"/>
		<rect x="298.4" y="131.5" class="st5" width="3.6" height="2.9"/>
		<path d="M303.8,105.8c0-0.8-0.6-1.5-1.4-1.5h-31.7c-0.8,0-1.4,0.7-1.4,1.5v1.5h34.5V105.8z"/>
		<path d="M303.8,108.7h-34.5l-2.9,8.1c0,1.6,1.3,2.9,2.9,2.9c1.6,0,2.9-1.3,2.9-2.9c0,1.6,1.3,2.9,2.9,2.9s2.9-1.3,2.9-2.9
			c0,1.6,1.3,2.9,2.9,2.9c1.6,0,2.9-1.3,2.9-2.9c0,1.6,1.3,2.9,2.9,2.9c1.6,0,2.9-1.3,2.9-2.9c0,1.6,1.3,2.9,2.9,2.9
			c1.6,0,2.9-1.3,2.9-2.9c0,1.6,1.3,2.9,2.9,2.9c1.6,0,2.9-1.3,2.9-2.9c0,1.6,1.3,2.9,2.9,2.9c1.6,0,2.9-1.3,2.9-2.9L303.8,108.7z"
			/>
		<path d="M298,121.2c-1.1,0-2.1-0.4-2.9-1.1c-0.8,0.7-1.8,1.1-2.9,1.1s-2.1-0.4-2.9-1.1c-0.8,0.7-1.8,1.1-2.9,1.1
			c-1.1,0-2.1-0.4-2.9-1.1c-0.8,0.7-1.8,1.1-2.9,1.1c-1.1,0-2.1-0.4-2.9-1.1c-0.8,0.7-1.8,1.1-2.9,1.1c-1.1,0-2.1-0.4-2.9-1.1
			c-0.8,0.7-1.8,1.1-2.9,1.1v23.5h12.2v-17.6h10.1v17.6h12.2v-23.5c-1.1,0-2.1-0.4-2.9-1.1C300.1,120.8,299.1,121.2,298,121.2z
			 M275,134.4h-3.6v-2.9h3.6V134.4z M275,130h-3.6v-2.9h3.6V130z M280,134.4h-3.6v-2.9h3.6V134.4z M280,130h-3.6v-2.9h3.6V130z
			 M296.9,134.4h-3.6v-2.9h3.6V134.4z M296.9,130h-3.6v-2.9h3.6V130z M302,134.4h-3.6v-2.9h3.6V134.4z M302,130h-3.6v-2.9h3.6V130z"
			/>
		<rect x="283.1" y="128.4" width="6.9" height="16.2"/>
	</g>
</g>
<g id="ic_x5F_1" class="inv_icon inv_icon1">
	
		<radialGradient id="SVGID_6_" cx="171.5" cy="113" r="24.1997" gradientTransform="matrix(1.6567 0 0 0.2135 -112.6269 88.8743)" gradientUnits="userSpaceOnUse">
		<stop  offset="7.035176e-02" style="stop-color:#000000"/>
		<stop  offset="1" style="stop-color:#000000;stop-opacity:0"/>
	</radialGradient>
	<ellipse class="st8" cx="171.5" cy="113" rx="55.5" ry="7"/>
	<path class="st3" d="M219.1,67c0-25.7-20.9-46.5-46.7-46.5c-25.8,0-46.7,20.8-46.7,46.5s20.9,46.5,46.7,46.5c5.8,0,11.3-1,16.4-2.9
		l7.2,4l0.6-7.7C210,98.6,219.1,83.8,219.1,67z"/>
	<path id="_x30_1" d="M160,88.5l-10.5-8.7l6-6c3.3-3.3,8.2-4.3,12.4-2.5h7.4c1.5,0,2.8,1.3,2.8,2.8c0,1.6-1.2,2.8-2.8,2.8h-5.7
		c-0.5,0-0.9,0.4-0.9,0.9c0,0.5,0.4,0.9,0.9,0.9h6.5c0.9,0,1.8-0.4,2.4-1.1l7-8.1c1.1-1.2,2.9-1.3,4.1-0.2c1.2,1.1,1.3,2.9,0.3,4.1
		l-8.7,10.3c-1.3,1.5-3.2,2.4-5.2,2.4h-13.6L160,88.5z M172.9,53.5c-2.2,0-4,1.8-4,4c0,2.2,1.8,4,4,4c2.2,0,4-1.8,4-4l0,0
		C176.8,55.3,175,53.5,172.9,53.5C172.9,53.5,172.8,53.5,172.9,53.5L172.9,53.5z M183.5,47.5c1.6,0,3,1.4,3,3v13.9c0,1.7-1.3,3-3,3
		l0,0h-21.4c-1.7,0-3-1.4-3-3V50.5c0-1.7,1.3-3,3-3H183.5z M183.1,55.2c-2.1-0.5-3.7-2.1-4.1-4.2h-12.2c-0.4,1.9-1.8,3.4-3.6,4.1
		c-0.3,0.1-0.5,0.4-0.5,0.7v3.5c0,0.3,0.2,0.6,0.5,0.7c1.8,0.6,3.2,2.2,3.6,4.1h12.2c0.5-2.1,2.1-3.7,4.1-4.2L183.1,55.2z"/>
</g>
</svg>
