<?xml version="1.0" encoding="utf-8"?>
<!-- Generator: Adobe Illustrator 21.1.0, SVG Export Plug-In . SVG Version: 6.00 Build 0)  -->
<svg version="1.1" id="Layer_1" xmlns="http://www.w3.org/2000/svg" xmlns:xlink="http://www.w3.org/1999/xlink" x="0px" y="0px"
viewBox="0 0 160 160" style="enable-background:new 0 0 160 160;" xml:space="preserve">
	<style type="text/css">
	.st0{fill:#4DC6E1;}
	</style>
	<path id="Star" class="st0" d="M138.6,4.5c-2.4,9.9-10.9,17.9-20.9,20.1h0c10,2.4,19.2,11.6,21.5,21.6c2.4-9.9,10.4-19.3,20.4-21.6
	h0C149.5,22.2,140.8,14.5,138.6,4.5L138.6,4.5z"/>
	<path id="Arrow" class="st0" d="M86.3,55.3L63.7,91.7l-5.2-19.7L43.1,58.6L86.3,55.3z"/>
	<path id="Circle" class="st0" d="M0.5,133.8v-0.1c0-12,9.5-21.8,22.6-21.8c13.1,0,22.5,9.7,22.5,21.7v0.1c0,12-9.5,21.8-22.6,21.8
	C9.9,155.5,0.5,145.8,0.5,133.8z"/>
</svg>
